<mxfile host="Electron" modified="2023-08-03T13:31:11.145Z" agent="Mozilla/5.0 (Windows NT 10.0; Win64; x64) AppleWebKit/537.36 (KHTML, like Gecko) draw.io/21.6.5 Chrome/114.0.5735.243 Electron/25.3.1 Safari/537.36" etag="w_1-69BgvkFApJuzK8C1" version="21.6.5" type="device">
  <diagram name="Page-1" id="Bp8VOITXGz05ZjKgMC42">
    <mxGraphModel dx="880" dy="511" grid="1" gridSize="10" guides="1" tooltips="1" connect="1" arrows="1" fold="1" page="1" pageScale="1" pageWidth="1169" pageHeight="827" math="0" shadow="0">
      <root>
        <mxCell id="0" />
        <mxCell id="1" parent="0" />
        <mxCell id="iEfwMZN6fMUn1y3hIy-U-3" value="4" style="align=right;verticalAlign=top;spacingRight=2;whiteSpace=wrap;html=1;" parent="1" vertex="1">
          <mxGeometry x="40" y="40" width="100" height="60" as="geometry" />
        </mxCell>
        <mxCell id="iEfwMZN6fMUn1y3hIy-U-4" value="w: Wheel" style="text;html=1;strokeColor=none;fillColor=none;align=center;verticalAlign=middle;spacingLeft=4;spacingRight=4;overflow=hidden;rotatable=0;points=[[0,0.5],[1,0.5]];portConstraint=eastwest;resizeWidth=1;whiteSpace=wrap;" parent="iEfwMZN6fMUn1y3hIy-U-3" vertex="1">
          <mxGeometry y="1" width="100" height="30" relative="1" as="geometry">
            <mxPoint y="-30" as="offset" />
          </mxGeometry>
        </mxCell>
        <mxCell id="iEfwMZN6fMUn1y3hIy-U-5" value="e: Engine[1..2]" style="fontStyle=0;dashed=1;html=1;whiteSpace=wrap;" parent="1" vertex="1">
          <mxGeometry x="264" y="50" width="100" height="40" as="geometry" />
        </mxCell>
        <mxCell id="UK3ZEiwxJMXa2vNOuc4G-1" value="" style="html=1;rounded=0;" vertex="1" parent="1">
          <mxGeometry x="132" y="65" width="10" height="10" as="geometry" />
        </mxCell>
        <mxCell id="UK3ZEiwxJMXa2vNOuc4G-2" value="" style="endArrow=none;html=1;rounded=0;align=center;verticalAlign=top;endFill=0;labelBackgroundColor=none;endSize=2;" edge="1" source="UK3ZEiwxJMXa2vNOuc4G-3" parent="1">
          <mxGeometry relative="1" as="geometry">
            <mxPoint x="160" y="50" as="targetPoint" />
          </mxGeometry>
        </mxCell>
        <mxCell id="UK3ZEiwxJMXa2vNOuc4G-16" value="4" style="align=right;verticalAlign=top;spacingRight=2;whiteSpace=wrap;html=1;" vertex="1" parent="1">
          <mxGeometry x="40" y="120" width="100" height="60" as="geometry" />
        </mxCell>
        <mxCell id="UK3ZEiwxJMXa2vNOuc4G-17" value="w: Wheel" style="text;html=1;strokeColor=none;fillColor=none;align=center;verticalAlign=middle;spacingLeft=4;spacingRight=4;overflow=hidden;rotatable=0;points=[[0,0.5],[1,0.5]];portConstraint=eastwest;resizeWidth=1;whiteSpace=wrap;" vertex="1" parent="UK3ZEiwxJMXa2vNOuc4G-16">
          <mxGeometry y="1" width="100" height="30" relative="1" as="geometry">
            <mxPoint y="-30" as="offset" />
          </mxGeometry>
        </mxCell>
        <mxCell id="UK3ZEiwxJMXa2vNOuc4G-18" value="e: Engine[1..2]" style="fontStyle=0;dashed=1;html=1;whiteSpace=wrap;" vertex="1" parent="1">
          <mxGeometry x="264" y="130" width="100" height="40" as="geometry" />
        </mxCell>
        <mxCell id="UK3ZEiwxJMXa2vNOuc4G-19" value="" style="html=1;rounded=0;" vertex="1" parent="1">
          <mxGeometry x="132" y="145" width="10" height="10" as="geometry" />
        </mxCell>
        <mxCell id="UK3ZEiwxJMXa2vNOuc4G-20" value="" style="endArrow=none;html=1;rounded=0;align=center;verticalAlign=top;endFill=0;labelBackgroundColor=none;endSize=2;" edge="1" source="UK3ZEiwxJMXa2vNOuc4G-19" target="UK3ZEiwxJMXa2vNOuc4G-21" parent="1">
          <mxGeometry relative="1" as="geometry" />
        </mxCell>
        <mxCell id="UK3ZEiwxJMXa2vNOuc4G-21" value="" style="ellipse;html=1;fontSize=11;align=center;fillColor=none;points=[];aspect=fixed;resizable=0;verticalAlign=bottom;labelPosition=center;verticalLabelPosition=top;flipH=1;" vertex="1" parent="1">
          <mxGeometry x="172" y="146" width="8" height="8" as="geometry" />
        </mxCell>
        <mxCell id="UK3ZEiwxJMXa2vNOuc4G-26" value="4" style="align=right;verticalAlign=top;spacingRight=2;whiteSpace=wrap;html=1;" vertex="1" parent="1">
          <mxGeometry x="40" y="200" width="100" height="60" as="geometry" />
        </mxCell>
        <mxCell id="UK3ZEiwxJMXa2vNOuc4G-27" value="w: Wheel" style="text;html=1;strokeColor=none;fillColor=none;align=center;verticalAlign=middle;spacingLeft=4;spacingRight=4;overflow=hidden;rotatable=0;points=[[0,0.5],[1,0.5]];portConstraint=eastwest;resizeWidth=1;whiteSpace=wrap;" vertex="1" parent="UK3ZEiwxJMXa2vNOuc4G-26">
          <mxGeometry y="1" width="100" height="30" relative="1" as="geometry">
            <mxPoint y="-30" as="offset" />
          </mxGeometry>
        </mxCell>
        <mxCell id="UK3ZEiwxJMXa2vNOuc4G-28" value="e: Engine[1..2]" style="fontStyle=0;dashed=1;html=1;whiteSpace=wrap;" vertex="1" parent="1">
          <mxGeometry x="264" y="210" width="100" height="40" as="geometry" />
        </mxCell>
        <mxCell id="UK3ZEiwxJMXa2vNOuc4G-29" value="" style="html=1;rounded=0;" vertex="1" parent="1">
          <mxGeometry x="132" y="225" width="10" height="10" as="geometry" />
        </mxCell>
        <mxCell id="UK3ZEiwxJMXa2vNOuc4G-30" value="" style="endArrow=none;html=1;rounded=0;align=center;verticalAlign=top;endFill=0;labelBackgroundColor=none;endSize=2;" edge="1" source="UK3ZEiwxJMXa2vNOuc4G-29" target="UK3ZEiwxJMXa2vNOuc4G-31" parent="1">
          <mxGeometry relative="1" as="geometry" />
        </mxCell>
        <mxCell id="UK3ZEiwxJMXa2vNOuc4G-31" value="" style="ellipse;html=1;fontSize=11;align=center;fillColor=none;points=[];aspect=fixed;resizable=0;verticalAlign=bottom;labelPosition=center;verticalLabelPosition=top;flipH=1;" vertex="1" parent="1">
          <mxGeometry x="202" y="226" width="8" height="8" as="geometry" />
        </mxCell>
        <mxCell id="UK3ZEiwxJMXa2vNOuc4G-32" value="" style="group;rotation=-180;" vertex="1" connectable="0" parent="1">
          <mxGeometry x="209" y="225" width="60" height="10" as="geometry" />
        </mxCell>
        <mxCell id="UK3ZEiwxJMXa2vNOuc4G-33" value="" style="html=1;rounded=0;direction=south;rotation=-180;" vertex="1" parent="UK3ZEiwxJMXa2vNOuc4G-32">
          <mxGeometry x="50" width="10" height="10" as="geometry" />
        </mxCell>
        <mxCell id="UK3ZEiwxJMXa2vNOuc4G-34" value="" style="endArrow=none;html=1;rounded=0;align=center;verticalAlign=top;endFill=0;labelBackgroundColor=none;endSize=2;" edge="1" parent="UK3ZEiwxJMXa2vNOuc4G-32" source="UK3ZEiwxJMXa2vNOuc4G-35" target="UK3ZEiwxJMXa2vNOuc4G-33">
          <mxGeometry relative="1" as="geometry" />
        </mxCell>
        <mxCell id="UK3ZEiwxJMXa2vNOuc4G-35" value="" style="shape=requiredInterface;html=1;fontSize=11;align=center;fillColor=none;points=[];aspect=fixed;resizable=0;verticalAlign=bottom;labelPosition=center;verticalLabelPosition=top;flipH=1;rotation=-180;" vertex="1" parent="UK3ZEiwxJMXa2vNOuc4G-32">
          <mxGeometry width="5" height="10" as="geometry" />
        </mxCell>
        <mxCell id="UK3ZEiwxJMXa2vNOuc4G-36" value="" style="endArrow=none;html=1;rounded=0;" edge="1" parent="1" target="UK3ZEiwxJMXa2vNOuc4G-25">
          <mxGeometry width="50" height="50" relative="1" as="geometry">
            <mxPoint x="180" y="150" as="sourcePoint" />
            <mxPoint x="220" y="150" as="targetPoint" />
          </mxGeometry>
        </mxCell>
        <mxCell id="UK3ZEiwxJMXa2vNOuc4G-23" value="" style="html=1;rounded=0;direction=south;rotation=-180;" vertex="1" parent="1">
          <mxGeometry x="259" y="145" width="10" height="10" as="geometry" />
        </mxCell>
        <mxCell id="UK3ZEiwxJMXa2vNOuc4G-24" value="" style="endArrow=none;html=1;rounded=0;align=center;verticalAlign=top;endFill=0;labelBackgroundColor=none;endSize=2;" edge="1" parent="1" target="UK3ZEiwxJMXa2vNOuc4G-23">
          <mxGeometry relative="1" as="geometry">
            <mxPoint x="230" y="150" as="sourcePoint" />
          </mxGeometry>
        </mxCell>
        <mxCell id="UK3ZEiwxJMXa2vNOuc4G-25" value="" style="shape=requiredInterface;html=1;fontSize=11;align=center;fillColor=none;points=[];aspect=fixed;resizable=0;verticalAlign=bottom;labelPosition=center;verticalLabelPosition=top;flipH=1;rotation=-180;" vertex="1" parent="1">
          <mxGeometry x="225" y="145" width="5" height="10" as="geometry" />
        </mxCell>
        <mxCell id="UK3ZEiwxJMXa2vNOuc4G-37" value="" style="endArrow=none;html=1;rounded=0;align=center;verticalAlign=top;endFill=0;labelBackgroundColor=none;endSize=2;" edge="1" parent="1" source="UK3ZEiwxJMXa2vNOuc4G-1" target="UK3ZEiwxJMXa2vNOuc4G-3">
          <mxGeometry relative="1" as="geometry">
            <mxPoint x="142" y="66" as="sourcePoint" />
            <mxPoint x="160" y="50" as="targetPoint" />
          </mxGeometry>
        </mxCell>
        <mxCell id="UK3ZEiwxJMXa2vNOuc4G-3" value="" style="ellipse;html=1;fontSize=11;align=center;fillColor=none;points=[];aspect=fixed;resizable=0;verticalAlign=bottom;labelPosition=center;verticalLabelPosition=top;flipH=1;" vertex="1" parent="1">
          <mxGeometry x="160" y="42" width="8" height="8" as="geometry" />
        </mxCell>
        <mxCell id="UK3ZEiwxJMXa2vNOuc4G-12" value="" style="html=1;rounded=0;direction=south;rotation=-180;" vertex="1" parent="1">
          <mxGeometry x="259" y="65" width="10" height="10" as="geometry" />
        </mxCell>
        <mxCell id="UK3ZEiwxJMXa2vNOuc4G-13" value="" style="endArrow=none;html=1;rounded=0;align=center;verticalAlign=top;endFill=0;labelBackgroundColor=none;endSize=2;" edge="1" target="UK3ZEiwxJMXa2vNOuc4G-12" parent="1">
          <mxGeometry relative="1" as="geometry">
            <mxPoint x="240" y="50" as="sourcePoint" />
          </mxGeometry>
        </mxCell>
        <mxCell id="UK3ZEiwxJMXa2vNOuc4G-14" value="" style="shape=requiredInterface;html=1;fontSize=11;align=center;fillColor=none;points=[];aspect=fixed;resizable=0;verticalAlign=bottom;labelPosition=center;verticalLabelPosition=top;flipH=1;rotation=-135;" vertex="1" parent="1">
          <mxGeometry x="235" y="43" width="5" height="10" as="geometry" />
        </mxCell>
        <mxCell id="UK3ZEiwxJMXa2vNOuc4G-39" value="" style="endArrow=none;html=1;rounded=0;exitX=1;exitY=0.5;exitDx=0;exitDy=0;entryX=0.5;entryY=0;entryDx=0;entryDy=0;" edge="1" parent="1" source="UK3ZEiwxJMXa2vNOuc4G-1" target="UK3ZEiwxJMXa2vNOuc4G-12">
          <mxGeometry width="50" height="50" relative="1" as="geometry">
            <mxPoint x="190" y="190" as="sourcePoint" />
            <mxPoint x="240" y="140" as="targetPoint" />
          </mxGeometry>
        </mxCell>
        <mxCell id="UK3ZEiwxJMXa2vNOuc4G-40" value="Figure 11.4 Alternative notations for connecting parts and roles with Ports" style="text;html=1;align=center;verticalAlign=middle;resizable=0;points=[];autosize=1;strokeColor=none;fillColor=none;" vertex="1" parent="1">
          <mxGeometry x="40" y="280" width="410" height="30" as="geometry" />
        </mxCell>
      </root>
    </mxGraphModel>
  </diagram>
</mxfile>
